<svg width="37" height="38" viewBox="0 0 37 38" fill="none" xmlns="http://www.w3.org/2000/svg">
<rect x="0.242676" y="0.796143" width="36.4078" height="36.4078" rx="18.2039" fill="#8D75F5"/>
<path d="M27.3192 20.6299C27.3192 21.9179 27.0614 23.0262 26.5734 23.8355C25.947 24.8749 24.9733 25.4249 23.7579 25.4249C21.4381 25.4249 19.8785 22.5145 18.2279 19.4337C17.0286 17.1956 15.5402 14.4108 14.3164 14.4108C13.7267 14.4108 13.0039 15.1274 12.4302 16.2809C11.7741 17.6377 11.4257 19.1228 11.4099 20.6299C11.4099 21.5707 11.5812 22.3723 11.8918 22.8878C12.1801 23.3666 12.5756 23.5892 13.1354 23.5892C14.1871 23.5892 15.4782 21.3711 15.9027 20.6452C16.0254 20.4348 16.2265 20.2818 16.462 20.2198C16.6975 20.1577 16.9479 20.1918 17.1583 20.3144C17.3686 20.437 17.5217 20.6382 17.5837 20.8737C17.6457 21.1091 17.6117 21.3596 17.4891 21.5699C16.8076 22.7387 16.2248 23.5586 15.6534 24.1537C14.8327 25.0088 14.0105 25.4249 13.1354 25.4249C11.9201 25.4249 10.9464 24.8749 10.32 23.8355C9.83198 23.0262 9.57422 21.9179 9.57422 20.6299C9.57422 17.2668 11.3778 12.5751 14.3164 12.5751C16.6363 12.5751 18.1958 15.4854 19.8464 18.5663C21.0473 20.8043 22.5365 23.5892 23.7579 23.5892C24.3178 23.5892 24.7133 23.3666 25.0016 22.8878C25.3122 22.3723 25.4835 21.5707 25.4835 20.6299C25.468 19.1228 25.1198 17.6378 24.4639 16.2809C23.8903 15.1274 23.1675 14.4108 22.577 14.4108C22.1395 14.4108 21.6125 14.7932 21.0098 15.5451C20.8576 15.7351 20.6362 15.857 20.3942 15.8838C20.1522 15.9106 19.9095 15.8402 19.7194 15.6881C19.5294 15.5359 19.4075 15.3145 19.3807 15.0725C19.3539 14.8306 19.4243 14.5878 19.5764 14.3978C20.5593 13.1717 21.5406 12.5751 22.577 12.5751C23.927 12.5751 25.1775 13.6008 26.1069 15.4632C26.8864 17.0752 27.3004 18.8394 27.3192 20.6299Z" fill="white"/>
</svg>
